Donnie Brasco (1997)

Director: Mike Newell

Donnie Brasco is a 1997 crime drama film directed by Mike Newell, starring Al Pacino, Johnny Depp and Michael Madsen. It is based on the real life events of Joseph D. Pistone, an FBI agent who infiltrated the Bonanno crime family, one of the Mafia's Five Families based in New York City during the 1970s, under the alias Donnie Brasco. The film was nominated for an Academy Award for Best Adapted Screenplay.

Starting in 1975, FBI agent Joseph D. Pistone is assigned to infiltrate the New York City based Bonanno crime family. Calling himself Donnie Brasco and posing as a jewel thief expert from Vero Beach, Florida, he befriends Benjamin Lefty Ruggiero, a low level mob hit man whose personal life is in tatters, and Dominick Sonny Black Napolitano, the boss of Lefty's crew.

Lefty can't seem to make enough money, his son is a drug addict and he is continually passed over for promotion to a higher position within the crime family. He continually reminds Brasco of his growing disillusionment about having spent 30 years in the Mafia (and killing 26 people), with little to show for it.

In Donnie, at least, Lefty sees a young protege who might be able to succeed where he failed. He takes Donnie under his wing. Donnie quickly becomes accepted by the other family members, as an associate (the lowest Mafia rank describing people who have criminal ties to the Mafia but are not actual members) and is later nearly officially inducted into the mob as a made man.

The longer Pistone plays the role of a gangster, the more he finds himself actually becoming Donnie Brasco during his rare off duty hours. His long absences and change in personality drive a wedge between Pistone and his wife and three children. Meanwhile, the slightest mistake in his performance as a mobster could result in death to him and his family.

In addition, Pistone has come to regard Lefty as a close and trusted friend. He knows that when the day finally comes that the FBI arrests his mob associates, he will be ending Lefty's life as surely as if he himself had killed him.

Media Info:
General
Complete name                    : J:\Seeding\Donnie Brasco (1997)[DVDRip][big_dad_e™]\Donnie Brasco (1997)[DVDRip][big_dad_e™].avi
Format                           : AVI
Format/Info                      : Audio Video Interleave
Format profile                   : OpenDML
File size                        : 2.53 GiB
Duration                         : 2h 6mn
Overall bit rate                 : 2 858 Kbps
Writing application              : Lavf51.12.1

Video
ID                               : 0
Format                           : MPEG-4 Visual
Format profile                   : Simple@L1
Format settings, BVOP            : No
Format settings, QPel            : No
Format settings, GMC             : No warppoints
Format settings, Matrix          : Default (H.263)
Codec ID                         : DX50
Codec ID/Hint                    : DivX 5
Duration                         : 2h 6mn
Bit rate                         : 2 526 Kbps
Width                            : 852 pixels
Height                           : 480 pixels
Display aspect ratio             : 16:9
Frame rate                       : 23.976 fps
Color space                      : YUV
Chroma subsampling               : 4:2:0
Bit depth                        : 8 bits
Scan type                        : Progressive
Bits/(Pixel*Frame)               : 0.258
Stream size                      : 2.23 GiB (88%)
Writing library                  : Lavc51.40.4

Audio
ID                               : 1
Format                           : MPEG Audio
Format version                   : Version 1
Format profile                   : Layer 3
Mode                             : Joint stereo
Codec ID                         : 55
Codec ID/Hint                    : MP3
Duration                         : 2h 6mn
Bit rate mode                    : Constant
Bit rate                         : 320 Kbps
Channel(s)                       : 2 channels
Sampling rate                    : 44.1 KHz
Stream size                      : 290 MiB (11%)
Alignment                        : Aligned on interleaves
Interleave, duration             : 26 ms (0.63 video frame)
Writing library                  : LAME3.97

File Scan:
Malwarebytes' Anti-Malware 1.46
www.malwarebytes.org

Database version: 5154

Windows 5.1.2600 Service Pack 3
Internet Explorer 8.0.6001.18702

11/19/2010 5:23:40 PM
mbam-log-2010-11-19 (17-23-40).txt

Scan type: Quick scan
Objects scanned: 6
Time elapsed: 15 second(s)

Memory Processes Infected: 0
Memory Modules Infected: 0
Registry Keys Infected: 0
Registry Values Infected: 0
Registry Data Items Infected: 0
Folders Infected: 0
Files Infected: 0

Memory Processes Infected:
(No malicious items detected)

Memory Modules Infected:
(No malicious items detected)

Registry Keys Infected:
(No malicious items detected)

Registry Values Infected:
(No malicious items detected)

Registry Data Items Infected:
(No malicious items detected)

Folders Infected:
(No malicious items detected)

Files Infected:
(No malicious items detected)

When using TPB please read these important notes:
  
01- Anti-malware apps may warn about keygens, patches, cracks, etc., because of 
    their capabilities, (generating codes, etc.). Sometimes they're added to 
    the virus/spyware database and will be detected as malware. If you don't trust
    the keygens, patches, cracks, etc., don't use them. 
    
02- Before running .exe-files, keygens, patches, cracks, etc., always check first 
    if they can be unpacked. Often some third party added a virus to the 
    original file, repacked it and uploaded it again.

03- Letting anti-malware apps send scan results to their companies can cause
    keygens, patches, cracks, etc., to be added to their virus-database.

04- Firewalls which are set to automatically determine connections will allow 
    apps & malware!. Avoid this by manually configuring your firewall.

05- Usually (new) torrents with many downloads and seeders in a brief period is
    suspicious! Torrents with the Skull & Crossbones icon are trusted.

06- Some people use multiple accounts and post fake comments 
    and/or files trying to spread confusion. They seldom seriously
    comment or have any torrents, or a just a few to look passable.

07- Clicking on unknown links can cause malware to be installed on your machine.
  
08- In general often there are more fake and negative comments than reliable and
    positive comments.

09- In some countries uploading/downloading copyright protected material is 
    forbidden, but showing some appreciation to reliable up-loaders is not.

10- Posting fake and negative comments or fake/infected uploads on TPB can result
    in getting banned from TPB!

Requests?  Find me on SuprBay.
 

For reporting bad or suspicious torrents:  
http://forum.suprbay.org/forumdisplay.php?fid=29

For more of my torrents: 
https://thepiratebay.org/user/big_dad_e/  (Secured)

All torrents scanned with:
Norton Anti-virus
Malwarebytes' Anti-malware
 
http://www.pirate-party.us/

ALWAYS SEED & THANKS SEEDERS!